# xmcd
#
# Track frame offsets: 
#        150
#        11430
#        25257
#        38492
#        52572
#        65322
#        78457
#        93552
#        109575
#        124965
#        137407
#        165382
#        179320
#        194270
#        210440
#        225880
#        244352
#        273897
#        285282
#        298027
#        319927
#
# Disc length: 4500 seconds
#
# Revision: 3
# Processed by: cddbd v1.5.2PL0 Copyright (c) Steve Scherf et al.
# Submitted via: ExactAudioCopyFreeDBPlugin 1.0
#
DISCID=0d119215
DTITLE=The Dells - Anthology
DYEAR=1999
DGENRE=Rhythm and Blues
TTITLE0=Darling I Know
TTITLE1=Dreams of Contentment
TTITLE2=Oh, What a Night (Vee-Jay version)
TTITLE3=Pains in My Heart
TTITLE4=The (Bossa Nova) Bird
TTITLE5=Stay in My Corner (Vee-Jay version)
TTITLE6=O-O I Love You
TTITLE7=There Is
TTITLE8=Wear it on Our Face
TTITLE9=Love is So Simple
TTITLE10=Stay in My Corner (Cadet version)
TTITLE11=Always Together
TTITLE12=Does Anybody Know I'm Here?
TTITLE13=I Can't Do Enough
TTITLE14=I Can Sing a Rainbow - Love is Blue
TTITLE15=Oh, What a Night (Cadet version)
TTITLE16=Open Up My Heart (long version)
TTITLE17=Long Lonely Nights
TTITLE18=Oh, What a Day
TTITLE19=The Love We Had (Stays on My Mind)
TTITLE20=The Glory of Love
EXTD=ID3G: 42
EXTT0=
EXTT1=
EXTT2=
EXTT3=
EXTT4=
EXTT5=
EXTT6=
EXTT7=
EXTT8=
EXTT9=
EXTT10=
EXTT11=
EXTT12=
EXTT13=
EXTT14=
EXTT15=
EXTT16=
EXTT17=
EXTT18=
EXTT19=
EXTT20=
PLAYORDER=
